<svg width="16" height="16" viewBox="0 0 16 16" fill="none" xmlns="http://www.w3.org/2000/svg">
<path d="M3.83613 8.29948C3.81869 9.9104 4.08678 10.8222 4.61899 11.3544C5.15279 11.8882 6.07536 12.1638 7.70591 12.1638C9.33627 12.1638 10.2491 11.8882 10.7784 11.3555C11.3084 10.8221 11.5757 9.90836 11.5757 8.29407C11.5757 6.67978 11.3084 5.76607 10.7784 5.2326C10.2491 4.69991 9.33627 4.42432 7.70591 4.42432C6.07574 4.42432 5.17257 4.69986 4.6479 5.23144C4.12011 5.76617 3.85364 6.6818 3.83613 8.29948Z" stroke="#4F4F4F" stroke-linecap="round" stroke-linejoin="round"/>
<path d="M8.20593 1.1933C8.20593 0.917156 7.98208 0.693298 7.70593 0.693298C7.42979 0.693298 7.20593 0.917156 7.20593 1.1933H8.20593ZM7.20593 2.28574C7.20593 2.56188 7.42979 2.78574 7.70593 2.78574C7.98208 2.78574 8.20593 2.56188 8.20593 2.28574H7.20593ZM7.20593 1.1933V2.28574H8.20593V1.1933H7.20593Z" fill="#4F4F4F"/>
<path d="M8.20593 14.3024C8.20593 14.0263 7.98208 13.8024 7.70593 13.8024C7.42979 13.8024 7.20593 14.0263 7.20593 14.3024H8.20593ZM7.20593 15.3949C7.20593 15.671 7.42979 15.8949 7.70593 15.8949C7.98208 15.8949 8.20593 15.671 8.20593 15.3949H7.20593ZM7.20593 14.3024V15.3949H8.20593V14.3024H7.20593Z" fill="#4F4F4F"/>
<path d="M14.8068 8.79413C15.0829 8.79413 15.3068 8.57027 15.3068 8.29413C15.3068 8.01799 15.0829 7.79413 14.8068 7.79413L14.8068 8.79413ZM13.7143 7.79413C13.4382 7.79413 13.2143 8.01799 13.2143 8.29413C13.2143 8.57027 13.4382 8.79413 13.7143 8.79413L13.7143 7.79413ZM14.8068 7.79413L13.7143 7.79413L13.7143 8.79413L14.8068 8.79413L14.8068 7.79413Z" fill="#4F4F4F"/>
<path d="M1.69751 8.79413C1.97365 8.79413 2.19751 8.57027 2.19751 8.29413C2.19751 8.01799 1.97365 7.79413 1.69751 7.79413L1.69751 8.79413ZM0.605073 7.79413C0.328931 7.79413 0.105073 8.01799 0.105073 8.29413C0.105073 8.57027 0.32893 8.79413 0.605073 8.79413L0.605073 7.79413ZM1.69751 7.79413L0.605073 7.79413L0.605073 8.79413L1.69751 8.79413L1.69751 7.79413Z" fill="#4F4F4F"/>
<path d="M2.59727 2.47836C2.402 2.28309 2.08542 2.28309 1.89016 2.47836C1.6949 2.67362 1.6949 2.9902 1.89016 3.18546L2.59727 2.47836ZM2.66263 3.95793C2.85789 4.15319 3.17447 4.15319 3.36974 3.95793C3.565 3.76267 3.565 3.44609 3.36974 3.25083L2.66263 3.95793ZM1.89016 3.18546L2.66263 3.95793L3.36974 3.25083L2.59727 2.47836L1.89016 3.18546Z" fill="#4F4F4F"/>
<path d="M2.59727 14.336C2.402 14.5312 2.08542 14.5312 1.89016 14.336C1.6949 14.1407 1.6949 13.8241 1.89016 13.6289L2.59727 14.336ZM2.66263 12.8564C2.85789 12.6611 3.17447 12.6611 3.36974 12.8564C3.565 13.0517 3.565 13.3682 3.36974 13.5635L2.66263 12.8564ZM1.89016 13.6289L2.66263 12.8564L3.36974 13.5635L2.59727 14.336L1.89016 13.6289Z" fill="#4F4F4F"/>
<path d="M13.0407 2.47836C13.2359 2.28309 13.5525 2.28309 13.7478 2.47836C13.943 2.67362 13.943 2.9902 13.7478 3.18546L13.0407 2.47836ZM12.9753 3.95793C12.78 4.15319 12.4635 4.15319 12.2682 3.95793C12.0729 3.76267 12.0729 3.44609 12.2682 3.25083L12.9753 3.95793ZM13.7478 3.18546L12.9753 3.95793L12.2682 3.25083L13.0407 2.47836L13.7478 3.18546Z" fill="#4F4F4F"/>
<path d="M13.0407 14.336C13.2359 14.5312 13.5525 14.5312 13.7478 14.336C13.943 14.1407 13.943 13.8241 13.7478 13.6289L13.0407 14.336ZM12.9753 12.8564C12.78 12.6611 12.4635 12.6611 12.2682 12.8564C12.0729 13.0517 12.0729 13.3682 12.2682 13.5635L12.9753 12.8564ZM13.7478 13.6289L12.9753 12.8564L12.2682 13.5635L13.0407 14.336L13.7478 13.6289Z" fill="#4F4F4F"/>
</svg>
